<svg width="34" height="22" viewBox="0 0 34 22" fill="none" xmlns="http://www.w3.org/2000/svg">
<g clip-path="url(#clip0_990_746)">
<path d="M30.1886 0H3.17018C3.05763 0 2.94488 0 2.83253 0.000596543C2.73768 0.00139193 2.64303 0.00238617 2.54818 0.00497119C2.34158 0.0105389 2.13319 0.0228675 1.92917 0.0594555C1.72456 0.0945102 1.52632 0.159853 1.34098 0.253332C0.968368 0.44285 0.665506 0.745712 0.475988 1.11832C0.382342 1.30374 0.316992 1.50213 0.282112 1.70691C0.245126 1.91113 0.232996 2.11932 0.227429 2.32572C0.225005 2.42049 0.223547 2.51528 0.223054 2.61008C0.222656 2.72223 0.222656 2.83477 0.222656 2.94752V18.1232C0.222656 18.2359 0.222656 18.3483 0.223054 18.461C0.22365 18.5557 0.224844 18.6505 0.227429 18.7454C0.232996 18.9514 0.245325 19.1598 0.282112 19.3638C0.316921 19.5686 0.382204 19.767 0.47579 19.9524C0.569881 20.1376 0.692699 20.3067 0.839681 20.4535C0.986412 20.6005 1.15555 20.7233 1.34078 20.8174C1.52909 20.9134 1.72197 20.9745 1.92937 21.0116C2.13319 21.048 2.34158 21.0604 2.54818 21.0659C2.64303 21.0681 2.73768 21.0693 2.83253 21.0699C2.94488 21.0707 3.05763 21.0707 3.17018 21.0707H30.1886C30.301 21.0707 30.4137 21.0707 30.5261 21.0699C30.6207 21.0695 30.7154 21.0681 30.8106 21.0659C31.0168 21.0604 31.2252 21.048 31.4296 21.0116C31.6343 20.9766 31.8325 20.9111 32.0178 20.8174C32.3903 20.6276 32.693 20.3248 32.8828 19.9524C32.9789 19.7641 33.0397 19.5712 33.0765 19.3638C33.1135 19.1598 33.1254 18.9514 33.131 18.7454C33.1336 18.6505 33.135 18.5557 33.1354 18.461C33.1361 18.3483 33.1361 18.2359 33.1361 18.1232V2.94772C33.1361 2.83497 33.1361 2.72242 33.1354 2.60988C33.135 2.51515 33.1335 2.42042 33.131 2.32572C33.1254 2.11932 33.1135 1.91113 33.0765 1.70691C33.0419 1.5021 32.9766 1.30368 32.8828 1.11832C32.6932 0.745777 32.3904 0.442939 32.0178 0.253332C31.8325 0.159949 31.6342 0.094675 31.4296 0.0596543C31.2252 0.0228675 31.0168 0.0107378 30.8106 0.00517004C30.7158 0.00276146 30.6209 0.00130316 30.5261 0.000795391C30.4137 0 30.301 0 30.1886 0Z" fill="#E4E4E4"/>
<path d="M30.1894 0.702148L30.5219 0.702745C30.6118 0.703342 30.7018 0.704336 30.7923 0.706722C30.95 0.711097 31.1341 0.719647 31.3059 0.750468C31.4551 0.777313 31.5804 0.818077 31.7005 0.879322C31.9408 1.00153 32.1361 1.197 32.258 1.43749C32.3189 1.5568 32.3594 1.68128 32.3863 1.8318C32.4169 2.00162 32.4255 2.18635 32.4296 2.34483C32.4322 2.43431 32.4334 2.52379 32.4336 2.61526C32.4346 2.72602 32.4346 2.83658 32.4346 2.94754V18.1232C32.4346 18.2342 32.4346 18.3447 32.4338 18.4577C32.4334 18.5471 32.4322 18.6366 32.4298 18.7261C32.4255 18.8844 32.4169 19.0691 32.3859 19.2409C32.3633 19.3776 32.3201 19.51 32.2576 19.6337C32.1354 19.8742 31.9399 20.0697 31.6993 20.1918C31.58 20.2527 31.4551 20.2934 31.3073 20.3201C31.1322 20.3513 30.9401 20.3598 30.7955 20.3638C30.7046 20.3658 30.6142 20.3672 30.5213 20.3676C30.4109 20.3684 30.3 20.3684 30.1894 20.3684H3.1666C3.05723 20.3684 2.94786 20.3684 2.83651 20.3676C2.74702 20.3672 2.65753 20.366 2.56807 20.364C2.42012 20.36 2.22804 20.3513 2.05424 20.3203C1.91683 20.2974 1.78369 20.2538 1.65933 20.191C1.54005 20.1304 1.43117 20.0512 1.3368 19.9564C1.24213 19.8619 1.16306 19.753 1.10256 19.6337C1.04007 19.5093 0.996759 19.3762 0.974101 19.2389C0.943081 19.0673 0.934332 18.8834 0.930355 18.7263C0.928108 18.6365 0.926783 18.5467 0.926378 18.4569L0.925781 18.193V2.87794L0.926179 2.61447C0.926589 2.52451 0.927915 2.43456 0.930156 2.34463C0.934531 2.18714 0.943081 2.00321 0.9743 1.83021C0.997003 1.69318 1.04031 1.56037 1.10276 1.43629C1.1634 1.31698 1.2426 1.20805 1.3374 1.11356C1.432 1.01882 1.54099 0.939624 1.66032 0.878924C1.78438 0.816601 1.9171 0.773297 2.05404 0.750468C2.22605 0.719647 2.41038 0.711097 2.56826 0.706722C2.658 0.704506 2.74775 0.70318 2.8375 0.702745L3.17097 0.702148H30.1894Z" fill="white"/>
<path d="M8.87748 7.11289C9.15666 6.76392 9.34596 6.29523 9.29605 5.81641C8.88762 5.83669 8.38931 6.08584 8.10058 6.43522C7.84148 6.73429 7.61221 7.22246 7.67186 7.6812C8.13041 7.72097 8.58855 7.45213 8.87748 7.11289ZM9.29088 7.77088C8.62474 7.73111 8.05882 8.14869 7.74086 8.14869C7.42271 8.14869 6.93573 7.79077 6.40898 7.80051C5.72355 7.81045 5.08764 8.19821 4.73965 8.81463C4.0242 10.0475 4.55075 11.8769 5.24672 12.8811C5.58456 13.3782 5.9918 13.925 6.52829 13.9053C7.03535 13.8855 7.234 13.5772 7.85003 13.5772C8.46586 13.5772 8.64483 13.9053 9.18152 13.8954C9.73789 13.8855 10.0859 13.3983 10.4237 12.9012C10.8115 12.3344 10.97 11.7876 10.9799 11.7578C10.97 11.7478 9.90691 11.34 9.89697 10.1171C9.88703 9.09302 10.7317 8.60584 10.7715 8.57582C10.2945 7.87031 9.54919 7.79077 9.29068 7.77088" fill="#002147"/>
<path d="M15.929 6.38477C17.3762 6.38477 18.3842 7.38238 18.3842 8.83477C18.3842 10.2923 17.3555 11.2951 15.8928 11.2951H14.2905V13.8435H13.1328V6.38477H15.929ZM14.2905 10.3233H15.6188C16.627 10.3233 17.2004 9.78069 17.2004 8.83994C17.2004 7.89939 16.6268 7.3617 15.624 7.3617H14.2905V10.3233ZM18.6713 12.2979C18.6713 11.3416 19.4001 10.7938 20.7439 10.7111L22.186 10.6232V10.2096C22.186 9.60511 21.7881 9.27422 21.08 9.27422C20.4957 9.27422 20.0718 9.57389 19.9843 10.0338H18.94C18.9712 9.06742 19.8807 8.36449 21.111 8.36449C22.4341 8.36449 23.2973 9.05708 23.2973 10.1323V13.8433H22.2275V12.9491H22.2017C21.8966 13.5331 21.2245 13.9 20.4957 13.9C19.4208 13.9 18.6713 13.2593 18.6713 12.2979ZM22.186 11.8173V11.3985L20.899 11.4812C20.1752 11.5278 19.7982 11.7964 19.7982 12.2667C19.7982 12.7216 20.1909 13.0163 20.806 13.0163C21.5914 13.0163 22.186 12.5148 22.186 11.8173ZM24.281 15.8384V14.9444C24.3534 14.9545 24.529 14.9648 24.622 14.9648C25.1337 14.9648 25.4232 14.7481 25.599 14.1895L25.7024 13.8589L23.7433 8.4317H24.9527L26.3174 12.8354H26.3433L27.7078 8.4317H28.8863L26.8549 14.1327C26.3896 15.4405 25.8573 15.8696 24.7306 15.8696C24.6427 15.8696 24.3584 15.8593 24.281 15.8384Z" fill="#002147"/>
</g>
<defs>
<clipPath id="clip0_990_746">
<rect width="33.3623" height="21.0709" fill="white"/>
</clipPath>
</defs>
</svg>
