<svg width="34" height="22" viewBox="0 0 34 22" fill="none" xmlns="http://www.w3.org/2000/svg">
<g clip-path="url(#clip0_990_742)">
<path opacity="0.07" d="M30.7284 0H2.63386C1.14134 0 0 1.14134 0 2.63386V18.437C0 19.9296 1.22914 21.0709 2.63386 21.0709H30.7284C32.2209 21.0709 33.3623 19.9296 33.3623 18.437V2.63386C33.3623 1.14134 32.1331 0 30.7284 0Z" fill="#002147"/>
<path d="M30.7294 0.87793C31.6951 0.87793 32.4853 1.66809 32.4853 2.63384V18.437C32.4853 19.4028 31.6951 20.1929 30.7294 20.1929H2.63482C1.66907 20.1929 0.878906 19.4028 0.878906 18.437V2.63384C0.878906 1.66809 1.66907 0.87793 2.63482 0.87793H30.7294Z" fill="white"/>
<path d="M10.5352 10.5353V13.7838C10.5352 14.0471 10.3596 14.0471 10.0962 13.9594C8.4281 13.257 7.46235 11.0621 8.07692 9.2184C8.4281 8.25265 9.13046 7.46249 10.0962 7.11131C10.4474 6.93572 10.5352 7.02351 10.5352 7.2869V10.5353ZM12.2911 10.5353V7.2869C12.2911 7.02351 12.2911 7.02351 12.5545 7.11131C14.3982 7.81367 15.3639 10.0086 14.6616 11.8523C14.3104 12.818 13.608 13.6082 12.6423 13.9594C12.2911 14.1349 12.2911 14.0471 12.2911 13.7838V10.5353ZM18.6124 4.38965H11.4131C14.7494 4.38965 17.3832 7.11131 17.3832 10.5353C17.3832 13.9594 14.7494 16.681 11.4131 16.681H18.6124C21.9486 16.681 24.5825 13.9594 24.5825 10.5353C24.5825 7.11131 21.9486 4.38965 18.6124 4.38965Z" fill="#3086C8"/>
</g>
<defs>
<clipPath id="clip0_990_742">
<rect width="33.3623" height="21.0709" fill="white"/>
</clipPath>
</defs>
</svg>
