<svg width="34" height="22" viewBox="0 0 34 22" fill="none" xmlns="http://www.w3.org/2000/svg">
<g clip-path="url(#clip0_990_767)">
<path opacity="0.07" d="M30.7284 0H2.63386C1.14134 0 0 1.14134 0 2.63386V18.437C0 19.9296 1.22914 21.0709 2.63386 21.0709H30.7284C32.2209 21.0709 33.3623 19.9296 33.3623 18.437V2.63386C33.3623 1.14134 32.1331 0 30.7284 0Z" fill="#002147"/>
<path d="M30.7294 0.87793C31.6951 0.87793 32.4853 1.66809 32.4853 2.63384V18.437C32.4853 19.4028 31.6951 20.1929 30.7294 20.1929H2.63482C1.66907 20.1929 0.878906 19.4028 0.878906 18.437V2.63384C0.878906 1.66809 1.66907 0.87793 2.63482 0.87793H30.7294Z" fill="white"/>
<path d="M3.1362 6.28602H1.75781V11.1148H3.1362C3.8649 11.1148 4.39168 10.9392 4.85699 10.5617C5.4101 10.1051 5.73495 9.42032 5.73495 8.70917C5.72617 7.27811 4.66384 6.28602 3.1362 6.28602ZM4.24242 9.92075C3.94392 10.1841 3.5664 10.3071 2.95183 10.3071H2.69722V7.1113H2.95183C3.55762 7.1113 3.92636 7.21665 4.24242 7.4976C4.56727 7.78732 4.76042 8.23508 4.76042 8.70039C4.76042 9.16571 4.56727 9.63103 4.24242 9.92075ZM6.16514 6.28602H7.10456V11.1148H6.16514V6.28602ZM9.4048 8.1385C8.84291 7.92779 8.6761 7.78732 8.6761 7.53271C8.6761 7.22543 8.9746 6.99716 9.37846 6.99716C9.6594 6.99716 9.89645 7.1113 10.1335 7.39224L10.6252 6.75133C10.2213 6.40015 9.73842 6.21578 9.20287 6.21578C8.35125 6.21578 7.69279 6.81279 7.69279 7.60295C7.69279 8.2702 8.00007 8.6126 8.87802 8.92866C9.24677 9.06036 9.43114 9.14815 9.52771 9.20083C9.71208 9.32374 9.80866 9.49933 9.80866 9.70126C9.80866 10.0963 9.50137 10.3861 9.07995 10.3861C8.6322 10.3861 8.27224 10.1578 8.05275 9.74516L7.44696 10.3334C7.87716 10.9743 8.40393 11.2552 9.11507 11.2552C10.0896 11.2552 10.7832 10.6056 10.7832 9.66614C10.8007 8.88476 10.4759 8.53358 9.4048 8.1385ZM11.0905 8.70917C11.0905 10.1315 12.2055 11.2289 13.6365 11.2289C14.0404 11.2289 14.3916 11.1499 14.813 10.948V9.84173C14.4355 10.2193 14.1019 10.3685 13.6804 10.3685C12.7322 10.3685 12.0562 9.6837 12.0562 8.70039C12.0562 7.76976 12.7498 7.04106 13.6365 7.04106C14.0843 7.04106 14.4267 7.19909 14.813 7.58539V6.47917C14.4004 6.26846 14.058 6.18066 13.6541 6.18066C12.2406 6.18066 11.0905 7.30445 11.0905 8.70917ZM22.2932 9.53445L21.0026 6.28602H19.9754L22.021 11.2377H22.5302L24.611 6.28602H23.5925L22.2932 9.53445ZM25.0412 11.1148H27.7102V10.2983H25.9806V8.9989H27.6487V8.1824H25.9806V7.1113H27.7102V6.28602H25.0412V11.1148ZM31.4415 7.71708C31.4415 6.81279 30.8181 6.2948 29.7294 6.2948H28.3335V11.1235H29.2729V9.18327H29.3958L30.6952 11.1235H31.8541L30.3352 9.08669C31.0464 8.93744 31.4415 8.45457 31.4415 7.71708ZM29.5451 8.51602H29.2729V7.04984H29.5626C30.1509 7.04984 30.4669 7.29567 30.4669 7.76976C30.4669 8.25264 30.1509 8.51602 29.5451 8.51602Z" fill="#002147"/>
<path d="M17.7022 11.2901C18.3847 11.2901 19.0392 11.019 19.5218 10.5364C20.0044 10.0538 20.2755 9.39932 20.2755 8.71684C20.2755 8.03436 20.0044 7.37984 19.5218 6.89725C19.0392 6.41467 18.3847 6.14355 17.7022 6.14355C17.0197 6.14355 16.3652 6.41467 15.8826 6.89725C15.4 7.37984 15.1289 8.03436 15.1289 8.71684C15.1289 9.39932 15.4 10.0538 15.8826 10.5364C16.3652 11.019 17.0197 11.2901 17.7022 11.2901Z" fill="black" fill-opacity="0.49"/>
<path d="M17.7022 11.2901C18.3847 11.2901 19.0392 11.019 19.5218 10.5364C20.0044 10.0538 20.2755 9.39932 20.2755 8.71684C20.2755 8.03436 20.0044 7.37984 19.5218 6.89725C19.0392 6.41467 18.3847 6.14355 17.7022 6.14355C17.0197 6.14355 16.3652 6.41467 15.8826 6.89725C15.4 7.37984 15.1289 8.03436 15.1289 8.71684C15.1289 9.39932 15.4 10.0538 15.8826 10.5364C16.3652 11.019 17.0197 11.2901 17.7022 11.2901Z" fill="#E67526"/>
<path d="M32.1071 6.5897C32.1071 6.50191 32.0456 6.45801 31.9491 6.45801H31.8086V6.87943H31.9139V6.71261L32.0369 6.87943H32.1598L32.0193 6.70384C32.072 6.69506 32.1071 6.65116 32.1071 6.5897ZM31.9315 6.65116H31.9139V6.53702H31.9315C31.9842 6.53702 32.0105 6.55458 32.0105 6.5897C32.0105 6.6336 31.9842 6.65116 31.9315 6.65116Z" fill="#002147"/>
<path d="M31.9664 6.2998C31.7645 6.2998 31.5977 6.46662 31.5977 6.66855C31.5977 6.87048 31.7645 7.03729 31.9664 7.03729C32.1683 7.03729 32.3351 6.87048 32.3351 6.66855C32.3351 6.46662 32.1683 6.2998 31.9664 6.2998ZM31.9664 6.97583C31.8084 6.97583 31.6679 6.84414 31.6679 6.66855C31.6679 6.50173 31.7996 6.36126 31.9664 6.36126C32.1244 6.36126 32.2561 6.50173 32.2561 6.66855C32.2561 6.83536 32.1244 6.97583 31.9664 6.97583Z" fill="#002147"/>
<path d="M32.4866 11.3994C32.4866 11.3994 23.7861 17.4476 7.88281 20.193H30.7298C31.1931 20.193 31.6376 20.01 31.9665 19.6837C32.2954 19.3574 32.482 18.9144 32.4857 18.4511L32.5068 15.7997L32.4866 11.4003V11.3994Z" fill="#E67526"/>
</g>
<defs>
<clipPath id="clip0_990_767">
<rect width="33.3623" height="21.0709" fill="white"/>
</clipPath>
</defs>
</svg>
