<svg width="17" height="19" viewBox="0 0 17 19" fill="none" xmlns="http://www.w3.org/2000/svg">
<path fill-rule="evenodd" clip-rule="evenodd" d="M8.09995 8.05915C8.71076 8.05915 9.29656 7.81651 9.72847 7.38461C10.1604 6.95271 10.403 6.36693 10.403 5.75614C10.403 5.14534 10.1604 4.55956 9.72847 4.12766C9.29656 3.69576 8.71076 3.45313 8.09995 3.45312C7.48914 3.45313 6.90334 3.69576 6.47143 4.12766C6.03952 4.55956 5.79688 5.14534 5.79688 5.75614C5.79688 6.36693 6.03952 6.95271 6.47143 7.38461C6.90334 7.81651 7.48914 8.05915 8.09995 8.05915ZM8.09995 4.60463C8.40535 4.60463 8.69825 4.72595 8.91421 4.9419C9.13016 5.15785 9.25148 5.45074 9.25148 5.75614C9.25148 6.06154 9.13016 6.35443 8.91421 6.57037C8.69825 6.78632 8.40535 6.90764 8.09995 6.90764C7.79454 6.90764 7.50164 6.78632 7.28569 6.57037C7.06973 6.35443 6.94841 6.06154 6.94841 5.75614C6.94841 5.45074 7.06973 5.15785 7.28569 4.9419C7.50164 4.72595 7.79454 4.60463 8.09995 4.60463Z" fill="white"/>
<path fill-rule="evenodd" clip-rule="evenodd" d="M2.92188 5.51111C2.92188 8.58908 5.9769 13.8181 8.10379 13.8181C10.2318 13.8181 13.2857 8.58908 13.2857 5.51111C13.2857 2.47574 10.9746 0 8.10379 0C5.23301 0 2.92188 2.47574 2.92188 5.51111ZM12.1342 5.51111C12.1342 8.03636 9.43036 12.6666 8.10379 12.6666C6.77837 12.6666 4.07341 8.03751 4.07341 5.51111C4.07341 3.0941 5.88708 1.15151 8.10379 1.15151C10.3205 1.15151 12.1342 3.0941 12.1342 5.51111Z" fill="white"/>
<path d="M12.0509 8.7987C11.9132 8.73945 11.8041 8.62886 11.7466 8.49041C11.6892 8.35197 11.688 8.19658 11.7434 8.05729C11.7987 7.91799 11.9062 7.80576 12.0429 7.74445C12.1797 7.68314 12.335 7.67758 12.4758 7.72895C12.9441 7.91467 13.3661 8.20055 13.7122 8.56655C14.0583 8.93256 14.3202 9.36983 14.4795 9.84772L16.0156 14.4537C16.1889 14.9732 16.2361 15.5265 16.1535 16.0678C16.0708 16.6091 15.8607 17.1231 15.5404 17.5672C15.22 18.0114 14.7987 18.373 14.3111 18.6223C13.8235 18.8716 13.2837 19.0014 12.7361 19.001H3.45467C2.90725 19.001 2.36765 18.871 1.88037 18.6215C1.39308 18.3721 0.972057 18.0104 0.651991 17.5663C0.331925 17.1222 0.121984 16.6084 0.0394698 16.0672C-0.0430443 15.5261 0.00423171 14.973 0.177401 14.4537L1.7124 9.84772C1.87448 9.36126 2.14282 8.91698 2.49796 8.54712C2.85309 8.17726 3.28611 7.89109 3.76559 7.70937C3.83628 7.68253 3.91158 7.66988 3.98716 7.67213C4.06275 7.67439 4.13715 7.69151 4.20612 7.72252C4.27509 7.75352 4.33728 7.79782 4.38913 7.85286C4.44098 7.9079 4.48149 7.97261 4.50833 8.04331C4.53517 8.114 4.54783 8.18929 4.54557 8.26487C4.54331 8.34046 4.52619 8.41486 4.49518 8.48383C4.46417 8.5528 4.41988 8.61498 4.36484 8.66683C4.3098 8.71868 4.24508 8.75919 4.17438 8.78603C3.85432 8.9071 3.56527 9.09797 3.32823 9.34477C3.09119 9.59156 2.91213 9.88807 2.80406 10.2127L1.26906 14.8188C1.15374 15.165 1.12235 15.5337 1.17747 15.8944C1.23259 16.2551 1.37265 16.5976 1.58609 16.8936C1.79954 17.1896 2.08027 17.4306 2.40515 17.5968C2.73002 17.763 3.08975 17.8496 3.45467 17.8495H12.7384C13.1033 17.8495 13.4631 17.7627 13.7879 17.5964C14.1127 17.43 14.3934 17.1889 14.6068 16.8928C14.8201 16.5967 14.96 16.2541 15.015 15.8933C15.0699 15.5325 15.0383 15.1638 14.9228 14.8176L13.389 10.2116C13.2827 9.89314 13.1081 9.60178 12.8773 9.35791C12.6466 9.11405 12.3653 8.92358 12.0532 8.79985" fill="white"/>
</svg>
