<svg xmlns="http://www.w3.org/2000/svg" width="153" height="50" fill="none"><g clip-path="url(#clip0)"><path fill="#EC4949" d="M0 0h50v50H0z"></path><path d="M37.367 61.583H35.45V35.1a1.321 1.321 0 00-1.258-1.36H24.106V18.58a1.34 1.34 0 00-1.341-1.34h-4.713a7.477 7.477 0 00-14.747 0h-4.65a1.365 1.365 0 00-1.362 1.36v15.14h-10.085a1.32 1.32 0 00-1.259 1.36v26.483h-1.918a1.031 1.031 0 100 2.062h53.337a1.031 1.031 0 100-2.062zm-40.074 0h-9.281V36.317a.516.516 0 01.515-.515h8.766v25.78zm13.386-48.52a5.38 5.38 0 015.434 5.31 5.518 5.518 0 01-5.434 5.549 5.43 5.43 0 010-10.86zm4.145 48.52h-8.25v-9.281h8.25v9.28zm7.22 0h-5.157V51.569a1.36 1.36 0 00-1.392-1.33H5.853a1.34 1.34 0 00-1.341 1.34v10.004H-.644V19.817a.516.516 0 01.515-.515h3.362v.005a7.484 7.484 0 0014.881 0l.01-.005h3.404a.516.516 0 01.515.515v41.766zm11.343 0h-9.281V35.802h8.765a.516.516 0 01.516.515v25.266z" fill="#fff"></path><path d="M13.798 19.275h-2.052v2.213a1.03 1.03 0 01-2.052 0v-2.213H7.606a1.002 1.002 0 110-2.002h2.093V15.29a1.031 1.031 0 012.052 0v1.983h2.053a1 1 0 11-.006 2.002zM17.918 30.645h-4.125a1.031 1.031 0 010-2.062h4.125a1.031 1.031 0 110 2.062zM7.605 30.645H3.48a1.031 1.031 0 010-2.062h4.125a1.031 1.031 0 110 2.062zM17.918 34.77h-4.125a1.031 1.031 0 010-2.062h4.125a1.031 1.031 0 110 2.062zM7.605 34.77H3.48a1.031 1.031 0 010-2.062h4.125a1.031 1.031 0 110 2.062zM17.918 40.958h-4.125a1.031 1.031 0 010-2.063h4.125a1.031 1.031 0 110 2.063zM7.605 40.958H3.48a1.031 1.031 0 010-2.063h4.125a1.031 1.031 0 110 2.063zM17.918 45.083h-4.125a1.031 1.031 0 010-2.063h4.125a1.031 1.031 0 110 2.063zM7.605 45.083H3.48a1.031 1.031 0 010-2.063h4.125a1.031 1.031 0 110 2.063zM30.293 43.02h-3.094a1.031 1.031 0 010-2.062h3.094a1.031 1.031 0 110 2.062zM30.293 47.145h-3.094a1.031 1.031 0 010-2.062h3.094a1.031 1.031 0 110 2.062z" fill="#fff"></path></g><path d="M69.193 9.733c.322 0 .588.112.798.336.21.224.315.511.315.861s-.112.637-.336.861c-.224.21-.49.315-.798.315-.308 0-.574-.105-.798-.315-.21-.224-.315-.51-.315-.86s.112-.638.336-.862a1.09 1.09 0 01.798-.336zm-1.197 4.536c.574 0 1.008.196 1.302.588.308.392.462.924.462 1.596 0 .546-.12 1.505-.357 2.877-.14.882-.252 1.624-.336 2.226-.07.588-.105 1.17-.105 1.743 0 .588.217.882.65.882.267 0 .54-.168.82-.504.28-.336.518-.847.714-1.533l.588.126a5.671 5.671 0 01-.903 2.058c-.434.602-1.001.903-1.701.903-1.26 0-1.89-.658-1.89-1.974 0-.546.035-1.078.105-1.596.07-.518.175-1.162.315-1.932.14-.854.238-1.512.294-1.974.07-.476.105-.973.105-1.49 0-.239-.05-.456-.147-.652a.446.446 0 00-.441-.294c-.266 0-.54.168-.82.504-.28.336-.517.847-.713 1.533l-.588-.126c.126-.686.413-1.35.86-1.995.449-.644 1.044-.966 1.786-.966zM79.327 14.27c.784 0 1.358.251 1.722.755.378.504.567 1.162.567 1.974 0 .938-.133 2.282-.399 4.032-.154 1.106-.23 1.834-.23 2.184 0 .308.034.546.104.714.084.168.238.252.462.252.266 0 .54-.16.82-.483.28-.336.517-.854.713-1.554l.588.147c-.07.392-.224.82-.462 1.281-.224.448-.532.84-.924 1.176a2.006 2.006 0 01-1.344.483c-.63 0-1.07-.16-1.323-.483-.252-.336-.378-.847-.378-1.533 0-.518.091-1.442.273-2.772.252-1.708.378-3.01.378-3.906 0-.322-.077-.616-.23-.882-.14-.266-.393-.399-.757-.399-.616 0-1.246.47-1.89 1.407-.644.924-1.183 2.072-1.617 3.444-.42 1.358-.63 2.618-.63 3.78 0 .266.014.637.042 1.113h-1.764a5.316 5.316 0 01-.02-.546c0-.336.027-.805.083-1.407.07-.602.168-1.393.294-2.373 0-.084.014-.224.042-.42a8.77 8.77 0 01.063-.567c.028-.196.05-.392.063-.588.098-.854.168-1.477.21-1.869.042-.392.063-.714.063-.966 0-.294-.042-.525-.126-.693-.07-.168-.217-.252-.44-.252-.267 0-.54.168-.82.504-.28.336-.518.847-.714 1.533l-.588-.126c.07-.392.217-.819.441-1.28a3.83 3.83 0 01.924-1.177 2.034 2.034 0 011.365-.504c1.05 0 1.575.721 1.575 2.163 0 .406-.042.854-.126 1.344-.07.476-.14.903-.21 1.281h.063c.672-1.792 1.337-3.038 1.995-3.738.672-.7 1.386-1.05 2.142-1.05zM94.74 25.448c-1.83 0-3.473-.439-4.929-1.316-1.437-.877-2.567-2.072-3.388-3.584-.802-1.512-1.204-3.192-1.204-5.04 0-1.83.364-3.547 1.092-5.152a9.425 9.425 0 013.304-3.892c1.475-1.008 3.248-1.512 5.32-1.512 2.053 0 3.939.57 5.656 1.708l-.14-1.512h1.512v6.496h-1.008c-.187-1.736-.803-3.09-1.848-4.06-1.026-.99-2.352-1.484-3.976-1.484a6.348 6.348 0 00-3.64 1.12c-1.082.728-1.941 1.773-2.576 3.136-.635 1.363-.952 2.94-.952 4.732 0 1.717.336 3.257 1.008 4.62.672 1.344 1.578 2.399 2.716 3.164a6.748 6.748 0 003.78 1.12c1.25 0 2.455-.28 3.612-.84a7.536 7.536 0 002.856-2.38l.728.588c-1.083 1.512-2.324 2.576-3.724 3.192-1.4.597-2.8.896-4.2.896zM103.461 24.16c.542 0 .924-.13 1.148-.392a1.78 1.78 0 00.42-1.036c.056-.43.084-1.092.084-1.988V7.5c0-.71.028-1.316.084-1.82l-1.988.112V4.616c1.12 0 1.914-.065 2.38-.196.486-.13.859-.317 1.12-.56h.812l.028 18.172c0 .728-.046 1.363-.14 1.904l1.764-.084V25h-5.712v-.84zM113.142 7.948c-.392 0-.737-.159-1.036-.476a1.713 1.713 0 01-.448-1.176c0-.448.149-.84.448-1.176.317-.336.672-.504 1.064-.504.429 0 .784.168 1.064.504.299.317.448.71.448 1.176 0 .448-.159.84-.476 1.176-.299.317-.653.476-1.064.476zM110.37 24.16c.541 0 .924-.13 1.148-.392a1.78 1.78 0 00.42-1.036c.056-.43.084-1.092.084-1.988V14.36c0-.541.037-1.148.112-1.82l-1.988.112v-1.176c1.101 0 1.885-.065 2.352-.196.485-.13.859-.317 1.12-.56h.812v11.312c0 .84-.037 1.475-.112 1.904l1.764-.084V25h-5.712v-.84zM117.245 24.16c.541 0 .924-.13 1.148-.392.243-.28.383-.616.42-1.008.037-.41.065-1.083.084-2.016l.028-6.384c0-.784.037-1.39.112-1.82l-1.988.112v-1.176c1.101 0 1.857-.056 2.268-.168.411-.13.756-.327 1.036-.588h.812c.037.355.075.924.112 1.708a7.765 7.765 0 012.156-1.344c.821-.355 1.624-.532 2.408-.532 1.624 0 2.809.513 3.556 1.54.747 1.008 1.12 2.585 1.12 4.732v5.208c0 .84-.037 1.475-.112 1.904l1.764-.084V25h-5.712v-.84c.541 0 .924-.13 1.148-.392a1.78 1.78 0 00.42-1.036c.056-.43.084-1.092.084-1.988v-3.92c-.019-1.605-.28-2.81-.784-3.612-.504-.821-1.297-1.232-2.38-1.232-.672 0-1.344.168-2.016.504a4.901 4.901 0 00-1.624 1.316c.019.205.028.57.028 1.092l-.028 7.14c0 .84-.037 1.475-.112 1.904l1.764-.084V25h-5.712v-.84zM136.025 7.948c-.392 0-.737-.159-1.036-.476a1.713 1.713 0 01-.448-1.176c0-.448.149-.84.448-1.176.317-.336.672-.504 1.064-.504.429 0 .784.168 1.064.504.299.317.448.71.448 1.176 0 .448-.159.84-.476 1.176-.299.317-.653.476-1.064.476zm-2.772 16.212c.541 0 .924-.13 1.148-.392a1.78 1.78 0 00.42-1.036c.056-.43.084-1.092.084-1.988V14.36c0-.541.037-1.148.112-1.82l-1.988.112v-1.176c1.101 0 1.885-.065 2.352-.196.485-.13.859-.317 1.12-.56h.812v11.312c0 .84-.037 1.475-.112 1.904l1.764-.084V25h-5.712v-.84zM146.96 25.448c-1.269 0-2.436-.29-3.5-.868-1.045-.579-1.876-1.41-2.492-2.492-.616-1.083-.924-2.361-.924-3.836 0-1.307.308-2.548.924-3.724a7.764 7.764 0 012.604-2.884c1.12-.728 2.38-1.092 3.78-1.092 1.008 0 1.904.159 2.688.476.784.317 1.391.737 1.82 1.26.448.523.672 1.092.672 1.708 0 .43-.121.784-.364 1.064s-.579.42-1.008.42c-.411 0-.719-.13-.924-.392-.205-.28-.308-.57-.308-.868 0-.467.14-.84.42-1.12-.205-.579-.607-.97-1.204-1.176a4.779 4.779 0 00-1.736-.336c-.859 0-1.633.233-2.324.7-.672.467-1.204 1.148-1.596 2.044-.392.896-.588 1.97-.588 3.22 0 1.25.196 2.361.588 3.332.411.97.98 1.736 1.708 2.296.728.541 1.568.812 2.52.812.84 0 1.661-.224 2.464-.672.821-.467 1.465-1.045 1.932-1.736l.728.56c-.691 1.083-1.587 1.904-2.688 2.464-1.083.56-2.147.84-3.192.84z" fill="#191414"></path><g opacity=".5" fill="#191414"><path d="M74.025 39.736c-.29-2.101-1.907-3.32-4.002-3.32-2.47 0-4.33 1.8-4.33 4.857 0 3.051 1.837 4.856 4.33 4.856 2.248 0 3.739-1.454 4.002-3.259l-1.726-.01c-.217 1.109-1.122 1.732-2.253 1.732-1.533 0-2.632-1.15-2.632-3.32 0-2.132 1.09-3.319 2.636-3.319 1.15 0 2.05.651 2.249 1.782h1.726zM76.594 46h1.712v-4.016h4.381V46h1.718v-9.455h-1.718v4.003h-4.38v-4.003h-1.713V46zM88.98 36.545h-1.713V46h1.713v-9.455zM99.927 39.736c-.29-2.101-1.906-3.32-4.002-3.32-2.47 0-4.33 1.8-4.33 4.857 0 3.051 1.837 4.856 4.33 4.856 2.248 0 3.74-1.454 4.002-3.259l-1.726-.01c-.217 1.109-1.122 1.732-2.253 1.732-1.533 0-2.631-1.15-2.631-3.32 0-2.132 1.09-3.319 2.636-3.319 1.15 0 2.05.651 2.248 1.782h1.727zM103.596 46l.78-2.331h3.555l.784 2.331h1.829l-3.334-9.455h-2.114L101.768 46h1.828zm1.242-3.707l1.278-3.809h.074l1.279 3.809h-2.631zM118.678 39.565h1.745c-.29-1.856-1.897-3.149-3.988-3.149-2.475 0-4.331 1.82-4.331 4.866 0 2.992 1.773 4.847 4.382 4.847 2.34 0 4.016-1.505 4.016-3.942V41.05h-3.836v1.339h2.179c-.028 1.348-.928 2.202-2.35 2.202-1.584 0-2.669-1.186-2.669-3.328 0-2.129 1.104-3.31 2.632-3.31 1.14 0 1.916.609 2.22 1.61zM131.606 41.273c0-3.056-1.865-4.857-4.344-4.857-2.484 0-4.344 1.8-4.344 4.857 0 3.051 1.86 4.856 4.344 4.856 2.479 0 4.344-1.8 4.344-4.856zm-1.722 0c0 2.151-1.08 3.319-2.622 3.319-1.537 0-2.622-1.168-2.622-3.32 0-2.15 1.085-3.319 2.622-3.319 1.542 0 2.622 1.168 2.622 3.32z"></path></g><defs><clipPath id="clip0"><path fill="#fff" d="M0 0h50v50H0z"></path></clipPath></defs></svg>