<svg xmlns="http://www.w3.org/2000/svg" xmlns:xlink="http://www.w3.org/1999/xlink" width="290" zoomAndPan="magnify" viewBox="0 0 217.5 59.249999" height="79" preserveAspectRatio="xMidYMid meet" version="1.0"><defs><g/><clipPath id="3ef3861e69"><path d="M 12 14 L 50.734375 14 L 50.734375 54.601562 L 12 54.601562 Z M 12 14 " clip-rule="nonzero"/></clipPath><clipPath id="bffcb844d9"><path d="M 1.113281 3.5 L 39 3.5 L 39 44 L 1.113281 44 Z M 1.113281 3.5 " clip-rule="nonzero"/></clipPath></defs><g clip-path="url(#3ef3861e69)"><path fill="#01949a" d="M 12.910156 33.386719 L 18.214844 35.152344 C 18.214844 35.152344 19.222656 35.707031 17.84375 36.796875 C 17.335938 37.199219 16.8125 38.058594 16.355469 38.988281 C 14.875 41.996094 14.671875 45.496094 15.910156 48.613281 C 17.136719 51.714844 19.894531 54.789062 26.003906 54.667969 C 28.058594 54.625 30.078125 54.078125 31.828125 52.996094 C 32.4375 52.617188 33.03125 52.164062 33.492188 51.640625 C 34.441406 50.5625 35.410156 49.496094 36.4375 48.492188 L 46.953125 38.230469 C 46.953125 38.230469 49.578125 35.710938 50.273438 31.210938 C 50.894531 27.195312 49.675781 23.117188 47.042969 20.019531 C 46.070312 18.875 44.75 17.429688 43.039062 15.773438 C 43.039062 15.773438 40.761719 13.746094 38.550781 16.210938 L 33.027344 21.765625 C 33.027344 21.765625 31.277344 24.046875 39.96875 24.550781 L 21.046875 35.628906 C 21.046875 35.628906 23.082031 32.613281 12.910156 33.386719 Z M 12.910156 33.386719 " fill-opacity="1" fill-rule="nonzero"/></g><g clip-path="url(#bffcb844d9)"><path fill="#adcc40" d="M 38.609375 24.742188 L 33.300781 23.003906 C 33.300781 23.003906 32.292969 22.453125 33.667969 21.355469 C 34.171875 20.953125 34.6875 20.089844 35.140625 19.160156 C 36.609375 16.144531 36.792969 12.640625 35.539062 9.53125 C 34.292969 6.433594 31.519531 3.378906 25.414062 3.53125 C 23.359375 3.582031 21.339844 4.140625 19.601562 5.230469 C 18.992188 5.613281 18.398438 6.070312 17.941406 6.597656 C 16.996094 7.679688 16.035156 8.753906 15.011719 9.757812 L 4.542969 20.074219 C 4.542969 20.074219 1.933594 22.605469 1.261719 27.113281 C 0.660156 31.128906 1.902344 35.203125 4.546875 38.285156 C 5.527344 39.425781 6.855469 40.859375 8.574219 42.511719 C 8.574219 42.511719 10.863281 44.527344 13.0625 42.050781 L 18.554688 36.464844 C 18.554688 36.464844 20.296875 34.175781 11.597656 33.71875 L 30.460938 22.546875 C 30.460938 22.546875 28.445312 25.570312 38.609375 24.742188 Z M 38.609375 24.742188 " fill-opacity="1" fill-rule="nonzero"/></g><path fill="#ffffff" d="M 42.9375 28.570312 L 42.9375 29.667969 C 42.933594 29.945312 42.90625 30.21875 42.851562 30.492188 C 42.796875 30.761719 42.71875 31.023438 42.613281 31.28125 C 42.507812 31.535156 42.375 31.777344 42.222656 32.007812 C 42.070312 32.238281 41.894531 32.449219 41.699219 32.644531 C 41.503906 32.839844 41.289062 33.015625 41.0625 33.167969 C 40.832031 33.320312 40.589844 33.453125 40.332031 33.558594 C 40.078125 33.664062 39.816406 33.746094 39.542969 33.800781 C 39.273438 33.851562 39 33.882812 38.722656 33.882812 L 32.496094 33.882812 C 32.226562 33.882812 31.972656 33.933594 31.722656 34.035156 C 31.476562 34.136719 31.257812 34.285156 31.070312 34.472656 C 30.882812 34.664062 30.734375 34.878906 30.632812 35.128906 C 30.53125 35.375 30.480469 35.632812 30.480469 35.898438 L 30.480469 42.125 C 30.480469 42.402344 30.453125 42.675781 30.398438 42.945312 C 30.34375 43.21875 30.261719 43.480469 30.15625 43.734375 C 30.050781 43.992188 29.921875 44.234375 29.765625 44.464844 C 29.613281 44.691406 29.4375 44.90625 29.242188 45.101562 C 29.046875 45.296875 28.835938 45.472656 28.605469 45.625 C 28.375 45.777344 28.132812 45.910156 27.878906 46.015625 C 27.625 46.121094 27.359375 46.199219 27.089844 46.253906 C 26.820312 46.308594 26.546875 46.335938 26.269531 46.339844 L 25.171875 46.339844 C 24.894531 46.335938 24.621094 46.308594 24.347656 46.253906 C 24.078125 46.199219 23.816406 46.121094 23.558594 46.015625 C 23.304688 45.910156 23.0625 45.777344 22.832031 45.625 C 22.601562 45.472656 22.390625 45.296875 22.195312 45.101562 C 22 44.90625 21.824219 44.691406 21.671875 44.464844 C 21.519531 44.234375 21.386719 43.992188 21.28125 43.734375 C 21.175781 43.480469 21.09375 43.21875 21.039062 42.945312 C 20.988281 42.675781 20.957031 42.402344 20.957031 42.125 L 20.957031 35.898438 C 20.957031 35.632812 20.90625 35.375 20.804688 35.128906 C 20.703125 34.882812 20.558594 34.664062 20.367188 34.472656 C 20.179688 34.285156 19.960938 34.140625 19.714844 34.039062 C 19.46875 33.933594 19.210938 33.882812 18.941406 33.882812 L 12.714844 33.882812 C 12.441406 33.882812 12.167969 33.855469 11.894531 33.800781 C 11.625 33.746094 11.363281 33.667969 11.105469 33.558594 C 10.851562 33.453125 10.609375 33.324219 10.378906 33.171875 C 10.148438 33.015625 9.9375 32.84375 9.742188 32.648438 C 9.546875 32.453125 9.371094 32.238281 9.21875 32.007812 C 9.0625 31.78125 8.933594 31.535156 8.828125 31.28125 C 8.722656 31.027344 8.640625 30.761719 8.585938 30.492188 C 8.53125 30.222656 8.503906 29.949219 8.503906 29.671875 L 8.503906 28.570312 C 8.503906 28.292969 8.53125 28.019531 8.585938 27.75 C 8.640625 27.476562 8.722656 27.214844 8.828125 26.960938 C 8.933594 26.703125 9.0625 26.460938 9.21875 26.234375 C 9.371094 26.003906 9.546875 25.789062 9.742188 25.59375 C 9.9375 25.398438 10.148438 25.226562 10.378906 25.070312 C 10.609375 24.917969 10.851562 24.789062 11.105469 24.683594 C 11.363281 24.574219 11.625 24.496094 11.894531 24.441406 C 12.167969 24.386719 12.441406 24.359375 12.714844 24.359375 L 18.941406 24.359375 C 19.210938 24.359375 19.46875 24.308594 19.714844 24.203125 C 19.960938 24.101562 20.179688 23.957031 20.367188 23.769531 C 20.554688 23.578125 20.703125 23.359375 20.804688 23.113281 C 20.90625 22.867188 20.957031 22.609375 20.957031 22.34375 L 20.957031 16.117188 C 20.957031 15.839844 20.988281 15.566406 21.039062 15.296875 C 21.09375 15.023438 21.175781 14.761719 21.28125 14.507812 C 21.386719 14.25 21.519531 14.007812 21.671875 13.777344 C 21.824219 13.550781 22 13.335938 22.195312 13.140625 C 22.390625 12.945312 22.601562 12.769531 22.832031 12.617188 C 23.0625 12.464844 23.304688 12.332031 23.558594 12.226562 C 23.816406 12.121094 24.078125 12.042969 24.347656 11.988281 C 24.621094 11.933594 24.894531 11.90625 25.171875 11.902344 L 26.269531 11.902344 C 26.546875 11.90625 26.820312 11.933594 27.089844 11.988281 C 27.359375 12.042969 27.625 12.121094 27.878906 12.226562 C 28.132812 12.332031 28.375 12.464844 28.605469 12.617188 C 28.835938 12.769531 29.046875 12.945312 29.242188 13.140625 C 29.4375 13.335938 29.613281 13.550781 29.765625 13.777344 C 29.921875 14.007812 30.050781 14.25 30.15625 14.507812 C 30.261719 14.761719 30.34375 15.023438 30.398438 15.296875 C 30.453125 15.566406 30.480469 15.839844 30.480469 16.117188 L 30.480469 22.34375 C 30.480469 22.609375 30.53125 22.867188 30.632812 23.113281 C 30.738281 23.359375 30.882812 23.578125 31.070312 23.769531 C 31.261719 23.957031 31.476562 24.101562 31.722656 24.203125 C 31.972656 24.308594 32.226562 24.359375 32.496094 24.359375 L 38.722656 24.359375 C 39 24.359375 39.273438 24.386719 39.542969 24.441406 C 39.816406 24.496094 40.078125 24.574219 40.332031 24.683594 C 40.589844 24.789062 40.832031 24.917969 41.0625 25.070312 C 41.289062 25.226562 41.503906 25.398438 41.699219 25.59375 C 41.894531 25.789062 42.070312 26.003906 42.222656 26.234375 C 42.375 26.460938 42.507812 26.703125 42.613281 26.960938 C 42.71875 27.214844 42.796875 27.476562 42.851562 27.75 C 42.90625 28.019531 42.933594 28.292969 42.9375 28.570312 Z M 42.9375 28.570312 " fill-opacity="1" fill-rule="nonzero"/><g fill="#191414" fill-opacity="1"><g transform="translate(53.232718, 40.20853)"><g><path d="M 12.015625 0.5 C 9.972656 0.5 8.148438 0.015625 6.546875 -0.953125 C 4.941406 -1.929688 3.6875 -3.257812 2.78125 -4.9375 C 1.882812 -6.625 1.4375 -8.492188 1.4375 -10.546875 C 1.4375 -12.578125 1.84375 -14.484375 2.65625 -16.265625 C 3.476562 -18.054688 4.703125 -19.503906 6.328125 -20.609375 C 7.953125 -21.722656 9.914062 -22.28125 12.21875 -22.28125 C 14.5 -22.28125 16.597656 -21.644531 18.515625 -20.375 L 18.359375 -22.0625 L 20.03125 -22.0625 L 20.03125 -14.84375 L 18.921875 -14.84375 C 18.710938 -16.769531 18.03125 -18.273438 16.875 -19.359375 C 15.726562 -20.453125 14.25 -21 12.4375 -21 C 10.96875 -21 9.625 -20.585938 8.40625 -19.765625 C 7.195312 -18.953125 6.238281 -17.785156 5.53125 -16.265625 C 4.832031 -14.753906 4.484375 -13.003906 4.484375 -11.015625 C 4.484375 -9.109375 4.851562 -7.398438 5.59375 -5.890625 C 6.34375 -4.390625 7.347656 -3.21875 8.609375 -2.375 C 9.878906 -1.539062 11.28125 -1.125 12.8125 -1.125 C 14.207031 -1.125 15.546875 -1.429688 16.828125 -2.046875 C 18.117188 -2.671875 19.175781 -3.554688 20 -4.703125 L 20.8125 -4.046875 C 19.601562 -2.367188 18.222656 -1.191406 16.671875 -0.515625 C 15.117188 0.160156 13.566406 0.5 12.015625 0.5 Z M 12.015625 0.5 "/></g></g></g><g fill="#191414" fill-opacity="1"><g transform="translate(74.976009, 40.20853)"><g><path d="M 1.0625 -0.9375 C 1.65625 -0.9375 2.082031 -1.082031 2.34375 -1.375 C 2.601562 -1.675781 2.757812 -2.0625 2.8125 -2.53125 C 2.863281 -3 2.890625 -3.734375 2.890625 -4.734375 L 2.890625 -19.4375 C 2.890625 -20.226562 2.921875 -20.90625 2.984375 -21.46875 L 0.78125 -21.34375 L 0.78125 -22.640625 C 2.019531 -22.640625 2.90625 -22.710938 3.4375 -22.859375 C 3.96875 -23.003906 4.378906 -23.210938 4.671875 -23.484375 L 5.5625 -23.484375 L 5.59375 -3.296875 C 5.59375 -2.484375 5.539062 -1.78125 5.4375 -1.1875 L 7.40625 -1.28125 L 7.40625 0 L 1.0625 0 Z M 1.0625 -0.9375 "/></g></g></g><g fill="#191414" fill-opacity="1"><g transform="translate(83.436917, 40.20853)"><g><path d="M 4.453125 -18.953125 C 4.015625 -18.953125 3.628906 -19.128906 3.296875 -19.484375 C 2.960938 -19.847656 2.796875 -20.28125 2.796875 -20.78125 C 2.796875 -21.28125 2.96875 -21.710938 3.3125 -22.078125 C 3.65625 -22.453125 4.046875 -22.640625 4.484375 -22.640625 C 4.953125 -22.640625 5.347656 -22.457031 5.671875 -22.09375 C 5.992188 -21.738281 6.15625 -21.300781 6.15625 -20.78125 C 6.15625 -20.28125 5.984375 -19.847656 5.640625 -19.484375 C 5.304688 -19.128906 4.910156 -18.953125 4.453125 -18.953125 Z M 1.375 -0.9375 C 1.96875 -0.9375 2.394531 -1.082031 2.65625 -1.375 C 2.914062 -1.675781 3.070312 -2.0625 3.125 -2.53125 C 3.175781 -3 3.203125 -3.734375 3.203125 -4.734375 L 3.203125 -11.828125 C 3.203125 -12.421875 3.242188 -13.09375 3.328125 -13.84375 L 1.125 -13.71875 L 1.125 -15.03125 C 2.34375 -15.03125 3.21875 -15.101562 3.75 -15.25 C 4.28125 -15.394531 4.691406 -15.597656 4.984375 -15.859375 L 5.875 -15.859375 L 5.875 -3.296875 C 5.875 -2.359375 5.832031 -1.65625 5.75 -1.1875 L 7.71875 -1.28125 L 7.71875 0 L 1.375 0 Z M 1.375 -0.9375 "/></g></g></g><g fill="#191414" fill-opacity="1"><g transform="translate(92.177785, 40.20853)"><g><path d="M 1.375 -0.9375 C 1.96875 -0.9375 2.394531 -1.082031 2.65625 -1.375 C 2.914062 -1.675781 3.066406 -2.050781 3.109375 -2.5 C 3.148438 -2.945312 3.179688 -3.691406 3.203125 -4.734375 L 3.234375 -11.828125 C 3.234375 -12.691406 3.273438 -13.363281 3.359375 -13.84375 L 1.15625 -13.71875 L 1.15625 -15.03125 C 2.375 -15.03125 3.210938 -15.097656 3.671875 -15.234375 C 4.128906 -15.367188 4.515625 -15.578125 4.828125 -15.859375 L 5.71875 -15.859375 C 5.757812 -15.472656 5.800781 -14.84375 5.84375 -13.96875 C 6.550781 -14.59375 7.351562 -15.09375 8.25 -15.46875 C 9.15625 -15.851562 10.046875 -16.046875 10.921875 -16.046875 C 12.722656 -16.046875 14.035156 -15.476562 14.859375 -14.34375 C 15.691406 -13.21875 16.109375 -11.460938 16.109375 -9.078125 L 16.109375 -3.296875 C 16.109375 -2.359375 16.066406 -1.65625 15.984375 -1.1875 L 17.953125 -1.28125 L 17.953125 0 L 11.609375 0 L 11.609375 -0.9375 C 12.203125 -0.9375 12.628906 -1.082031 12.890625 -1.375 C 13.148438 -1.675781 13.304688 -2.0625 13.359375 -2.53125 C 13.410156 -3 13.4375 -3.734375 13.4375 -4.734375 L 13.4375 -9.078125 C 13.414062 -10.867188 13.125 -12.210938 12.5625 -13.109375 C 12.007812 -14.015625 11.128906 -14.46875 9.921875 -14.46875 C 9.171875 -14.46875 8.425781 -14.28125 7.6875 -13.90625 C 6.957031 -13.53125 6.351562 -13.039062 5.875 -12.4375 C 5.894531 -12.207031 5.90625 -11.804688 5.90625 -11.234375 L 5.875 -3.296875 C 5.875 -2.359375 5.832031 -1.65625 5.75 -1.1875 L 7.71875 -1.28125 L 7.71875 0 L 1.375 0 Z M 1.375 -0.9375 "/></g></g></g><g fill="#191414" fill-opacity="1"><g transform="translate(111.059303, 40.20853)"><g><path d="M 4.453125 -18.953125 C 4.015625 -18.953125 3.628906 -19.128906 3.296875 -19.484375 C 2.960938 -19.847656 2.796875 -20.28125 2.796875 -20.78125 C 2.796875 -21.28125 2.96875 -21.710938 3.3125 -22.078125 C 3.65625 -22.453125 4.046875 -22.640625 4.484375 -22.640625 C 4.953125 -22.640625 5.347656 -22.457031 5.671875 -22.09375 C 5.992188 -21.738281 6.15625 -21.300781 6.15625 -20.78125 C 6.15625 -20.28125 5.984375 -19.847656 5.640625 -19.484375 C 5.304688 -19.128906 4.910156 -18.953125 4.453125 -18.953125 Z M 1.375 -0.9375 C 1.96875 -0.9375 2.394531 -1.082031 2.65625 -1.375 C 2.914062 -1.675781 3.070312 -2.0625 3.125 -2.53125 C 3.175781 -3 3.203125 -3.734375 3.203125 -4.734375 L 3.203125 -11.828125 C 3.203125 -12.421875 3.242188 -13.09375 3.328125 -13.84375 L 1.125 -13.71875 L 1.125 -15.03125 C 2.34375 -15.03125 3.21875 -15.101562 3.75 -15.25 C 4.28125 -15.394531 4.691406 -15.597656 4.984375 -15.859375 L 5.875 -15.859375 L 5.875 -3.296875 C 5.875 -2.359375 5.832031 -1.65625 5.75 -1.1875 L 7.71875 -1.28125 L 7.71875 0 L 1.375 0 Z M 1.375 -0.9375 "/></g></g></g><g fill="#191414" fill-opacity="1"><g transform="translate(119.800172, 40.20853)"><g><path d="M 8.953125 0.5 C 7.546875 0.5 6.253906 0.175781 5.078125 -0.46875 C 3.910156 -1.113281 2.984375 -2.035156 2.296875 -3.234375 C 1.617188 -4.441406 1.28125 -5.863281 1.28125 -7.5 C 1.28125 -8.945312 1.625 -10.328125 2.3125 -11.640625 C 3.007812 -12.960938 3.972656 -14.023438 5.203125 -14.828125 C 6.441406 -15.640625 7.835938 -16.046875 9.390625 -16.046875 C 10.515625 -16.046875 11.507812 -15.867188 12.375 -15.515625 C 13.25 -15.171875 13.929688 -14.707031 14.421875 -14.125 C 14.910156 -13.539062 15.15625 -12.90625 15.15625 -12.21875 C 15.15625 -11.75 15.019531 -11.359375 14.75 -11.046875 C 14.476562 -10.734375 14.101562 -10.578125 13.625 -10.578125 C 13.164062 -10.578125 12.820312 -10.726562 12.59375 -11.03125 C 12.363281 -11.332031 12.25 -11.648438 12.25 -11.984375 C 12.25 -12.492188 12.40625 -12.90625 12.71875 -13.21875 C 12.488281 -13.863281 12.046875 -14.304688 11.390625 -14.546875 C 10.742188 -14.785156 10.097656 -14.90625 9.453125 -14.90625 C 8.503906 -14.90625 7.648438 -14.644531 6.890625 -14.125 C 6.128906 -13.601562 5.53125 -12.84375 5.09375 -11.84375 C 4.664062 -10.851562 4.453125 -9.664062 4.453125 -8.28125 C 4.453125 -6.882812 4.671875 -5.644531 5.109375 -4.5625 C 5.554688 -3.488281 6.1875 -2.644531 7 -2.03125 C 7.8125 -1.425781 8.742188 -1.125 9.796875 -1.125 C 10.734375 -1.125 11.648438 -1.375 12.546875 -1.875 C 13.453125 -2.382812 14.164062 -3.023438 14.6875 -3.796875 L 15.5 -3.171875 C 14.726562 -1.972656 13.734375 -1.0625 12.515625 -0.4375 C 11.304688 0.1875 10.117188 0.5 8.953125 0.5 Z M 8.953125 0.5 "/></g></g></g><g fill="#191414" fill-opacity="1"><g transform="translate(136.348714, 40.20853)"><g/></g></g><g fill="#191414" fill-opacity="1"><g transform="translate(144.529673, 40.20853)"><g><path d="M 1.71875 -1.03125 C 2.4375 -1.050781 2.953125 -1.210938 3.265625 -1.515625 C 3.578125 -1.828125 3.753906 -2.195312 3.796875 -2.625 C 3.835938 -3.050781 3.859375 -3.796875 3.859375 -4.859375 L 3.859375 -18.296875 C 3.859375 -19.160156 3.890625 -19.90625 3.953125 -20.53125 L 1.71875 -20.40625 L 1.71875 -21.78125 L 9.046875 -21.8125 C 12.953125 -21.832031 16.046875 -20.914062 18.328125 -19.0625 C 20.609375 -17.21875 21.75 -14.484375 21.75 -10.859375 C 21.75 -8.910156 21.289062 -7.101562 20.375 -5.4375 C 19.457031 -3.78125 18.109375 -2.457031 16.328125 -1.46875 C 14.546875 -0.488281 12.398438 0 9.890625 0 L 1.71875 0 Z M 9.796875 -1.1875 C 11.535156 -1.1875 13.078125 -1.609375 14.421875 -2.453125 C 15.773438 -3.304688 16.828125 -4.476562 17.578125 -5.96875 C 18.328125 -7.46875 18.703125 -9.140625 18.703125 -10.984375 C 18.703125 -14.015625 17.867188 -16.382812 16.203125 -18.09375 C 14.546875 -19.800781 12.046875 -20.65625 8.703125 -20.65625 C 7.984375 -20.65625 7.46875 -20.507812 7.15625 -20.21875 C 6.84375 -19.925781 6.664062 -19.566406 6.625 -19.140625 C 6.582031 -18.722656 6.5625 -17.984375 6.5625 -16.921875 L 6.5625 -3.671875 C 6.5625 -2.585938 6.53125 -1.78125 6.46875 -1.25 C 7.195312 -1.207031 8.304688 -1.1875 9.796875 -1.1875 Z M 9.796875 -1.1875 "/></g></g></g><g fill="#191414" fill-opacity="1"><g transform="translate(167.703857, 40.20853)"><g><path d="M 9.078125 0.5 C 7.648438 0.5 6.335938 0.160156 5.140625 -0.515625 C 3.953125 -1.191406 3.007812 -2.128906 2.3125 -3.328125 C 1.625 -4.535156 1.28125 -5.894531 1.28125 -7.40625 C 1.28125 -9.019531 1.617188 -10.484375 2.296875 -11.796875 C 2.984375 -13.117188 3.921875 -14.15625 5.109375 -14.90625 C 6.304688 -15.664062 7.628906 -16.046875 9.078125 -16.046875 C 10.515625 -16.046875 11.832031 -15.695312 13.03125 -15 C 14.238281 -14.3125 15.1875 -13.363281 15.875 -12.15625 C 16.570312 -10.957031 16.921875 -9.625 16.921875 -8.15625 C 16.921875 -6.570312 16.570312 -5.113281 15.875 -3.78125 C 15.1875 -2.457031 14.242188 -1.410156 13.046875 -0.640625 C 11.859375 0.117188 10.535156 0.5 9.078125 0.5 Z M 9.328125 -0.75 C 10.847656 -0.75 11.960938 -1.367188 12.671875 -2.609375 C 13.390625 -3.859375 13.75 -5.40625 13.75 -7.25 C 13.75 -9.34375 13.359375 -11.132812 12.578125 -12.625 C 11.804688 -14.125 10.640625 -14.875 9.078125 -14.875 C 7.546875 -14.875 6.390625 -14.238281 5.609375 -12.96875 C 4.835938 -11.707031 4.453125 -10.15625 4.453125 -8.3125 C 4.453125 -6.976562 4.628906 -5.734375 4.984375 -4.578125 C 5.347656 -3.429688 5.898438 -2.503906 6.640625 -1.796875 C 7.378906 -1.097656 8.273438 -0.75 9.328125 -0.75 Z M 9.328125 -0.75 "/></g></g></g><g fill="#191414" fill-opacity="1"><g transform="translate(185.90104, 40.20853)"><g><path d="M 8.953125 0.5 C 7.546875 0.5 6.253906 0.175781 5.078125 -0.46875 C 3.910156 -1.113281 2.984375 -2.035156 2.296875 -3.234375 C 1.617188 -4.441406 1.28125 -5.863281 1.28125 -7.5 C 1.28125 -8.945312 1.625 -10.328125 2.3125 -11.640625 C 3.007812 -12.960938 3.972656 -14.023438 5.203125 -14.828125 C 6.441406 -15.640625 7.835938 -16.046875 9.390625 -16.046875 C 10.515625 -16.046875 11.507812 -15.867188 12.375 -15.515625 C 13.25 -15.171875 13.929688 -14.707031 14.421875 -14.125 C 14.910156 -13.539062 15.15625 -12.90625 15.15625 -12.21875 C 15.15625 -11.75 15.019531 -11.359375 14.75 -11.046875 C 14.476562 -10.734375 14.101562 -10.578125 13.625 -10.578125 C 13.164062 -10.578125 12.820312 -10.726562 12.59375 -11.03125 C 12.363281 -11.332031 12.25 -11.648438 12.25 -11.984375 C 12.25 -12.492188 12.40625 -12.90625 12.71875 -13.21875 C 12.488281 -13.863281 12.046875 -14.304688 11.390625 -14.546875 C 10.742188 -14.785156 10.097656 -14.90625 9.453125 -14.90625 C 8.503906 -14.90625 7.648438 -14.644531 6.890625 -14.125 C 6.128906 -13.601562 5.53125 -12.84375 5.09375 -11.84375 C 4.664062 -10.851562 4.453125 -9.664062 4.453125 -8.28125 C 4.453125 -6.882812 4.671875 -5.644531 5.109375 -4.5625 C 5.554688 -3.488281 6.1875 -2.644531 7 -2.03125 C 7.8125 -1.425781 8.742188 -1.125 9.796875 -1.125 C 10.734375 -1.125 11.648438 -1.375 12.546875 -1.875 C 13.453125 -2.382812 14.164062 -3.023438 14.6875 -3.796875 L 15.5 -3.171875 C 14.726562 -1.972656 13.734375 -1.0625 12.515625 -0.4375 C 11.304688 0.1875 10.117188 0.5 8.953125 0.5 Z M 8.953125 0.5 "/></g></g></g></svg>