<svg width="34" height="22" viewBox="0 0 34 22" fill="none" xmlns="http://www.w3.org/2000/svg">
<g clip-path="url(#clip0_990_761)">
<path opacity="0.07" d="M30.7284 0H2.63386C1.14134 0 0 1.14134 0 2.63386V18.437C0 19.9296 1.22914 21.0709 2.63386 21.0709H30.7284C32.2209 21.0709 33.3623 19.9296 33.3623 18.437V2.63386C33.3623 1.14134 32.1331 0 30.7284 0Z" fill="#002147"/>
<path d="M30.7294 0.87793C31.6951 0.87793 32.4853 1.66809 32.4853 2.63384V18.437C32.4853 19.4028 31.6951 20.1929 30.7294 20.1929H2.63482C1.66907 20.1929 0.878906 19.4028 0.878906 18.437V2.63384C0.878906 1.66809 1.66907 0.87793 2.63482 0.87793H30.7294Z" fill="white"/>
<path d="M13.1691 16.681C16.5633 16.681 19.3148 13.9295 19.3148 10.5353C19.3148 7.14116 16.5633 4.38965 13.1691 4.38965C9.77495 4.38965 7.02344 7.14116 7.02344 10.5353C7.02344 13.9295 9.77495 16.681 13.1691 16.681Z" fill="#EB001B"/>
<path d="M20.1926 16.681C23.5867 16.681 26.3382 13.9295 26.3382 10.5353C26.3382 7.14116 23.5867 4.38965 20.1926 4.38965C16.7984 4.38965 14.0469 7.14116 14.0469 10.5353C14.0469 13.9295 16.7984 16.681 20.1926 16.681Z" fill="#F79E1B"/>
<path d="M19.3146 10.5356C19.3146 8.4285 18.2611 6.5848 16.6807 5.53125C15.1004 6.67259 14.0469 8.5163 14.0469 10.5356C14.0469 12.5549 15.1004 14.4864 16.6807 15.5399C18.2611 14.4864 19.3146 12.6427 19.3146 10.5356Z" fill="#FF5F00"/>
</g>
<defs>
<clipPath id="clip0_990_761">
<rect width="33.3623" height="21.0709" fill="white"/>
</clipPath>
</defs>
</svg>
