<svg width="15" height="19" viewBox="0 0 15 19" fill="none" xmlns="http://www.w3.org/2000/svg">
<path d="M10.0526 14.5658L10.199 17.5351L7.19555 15.4479L4.17527 17.5371L4.32179 14.5658H3.05334L2.83472 19H4.28739L7.19388 16.9896L10.0869 19H11.5397L11.321 14.5658H10.0526ZM13.4984 5.49606L13.4115 3.59356L11.8075 2.56708L10.7808 0.962893L8.87824 0.875793L7.18719 0L5.49614 0.875991L3.5936 0.963091L2.56692 2.56708L0.962893 3.59356L0.87603 5.49606L0 7.18715L0.87603 8.87828L0.96313 10.7807L2.56692 11.8072L3.59344 13.4115L5.49598 13.4984L7.18719 14.3743L8.87824 13.4984L10.7808 13.4115L11.8073 11.8072L13.4115 10.7809L13.4984 8.87844L14.3744 7.18731L13.4984 5.49606ZM12.2455 8.54255L12.1757 10.0674L10.8899 10.8901L10.0672 12.1758L8.54239 12.2455L7.18719 12.9475L5.83183 12.2455L4.30699 12.1758L3.48429 10.8901L2.19873 10.0674L2.12909 8.54255L1.4267 7.18715L2.12893 5.83203L2.19873 4.30699L3.48429 3.48429L4.30699 2.19861L5.83183 2.12893L7.18719 1.42682L8.54255 2.12889L10.0674 2.19857L10.8901 3.48425L12.1757 4.30699L12.2453 5.83183L12.9477 7.18715L12.2455 8.54255Z" fill="white"/>
</svg>
