<svg width="34" height="22" viewBox="0 0 34 22" fill="none" xmlns="http://www.w3.org/2000/svg">
<g clip-path="url(#clip0_990_752)">
<path opacity="0.07" d="M30.7284 0H2.63386C1.14134 0 0 1.14134 0 2.63386V18.437C0 19.9296 1.22914 21.0709 2.63386 21.0709H30.7284C32.2209 21.0709 33.3623 19.9296 33.3623 18.437V2.63386C33.3623 1.14134 32.1331 0 30.7284 0Z" fill="#002147"/>
<path d="M30.7294 0.87793C31.6951 0.87793 32.4853 1.66809 32.4853 2.63384V18.437C32.4853 19.4028 31.6951 20.1929 30.7294 20.1929H2.63482C1.66907 20.1929 0.878906 19.4028 0.878906 18.437V2.63384C0.878906 1.66809 1.66907 0.87793 2.63482 0.87793H30.7294Z" fill="white"/>
<path d="M24.847 8.86714H24.5836C24.2324 9.7451 23.969 10.1841 23.7056 11.501H25.3737C25.1104 10.1841 25.1104 9.56951 24.847 8.86714ZM27.393 14.0471H25.9005C25.8127 14.0471 25.8127 14.0471 25.7249 13.9593L25.5493 13.1691L25.4615 12.9935H23.3544C23.2666 12.9935 23.1789 12.9935 23.1789 13.1691L22.9155 13.9593C22.9155 14.0471 22.8277 14.0471 22.8277 14.0471H20.984L21.1596 13.6081L23.7056 7.63801C23.7056 7.19903 23.969 7.02344 24.408 7.02344H25.7249C25.8127 7.02344 25.9005 7.02344 25.9005 7.19903L27.1296 12.9057C27.2174 13.2569 27.3052 13.5203 27.3052 13.8715C27.393 13.9593 27.393 13.9593 27.393 14.0471ZM15.6284 13.7837L15.9796 12.2034C16.0674 12.2034 16.1552 12.2912 16.1552 12.2912C16.7698 12.5546 17.3844 12.7301 17.9989 12.6423C18.1745 12.6423 18.4379 12.5546 18.6135 12.4668C19.0525 12.2912 19.0525 11.8522 18.7013 11.501C18.5257 11.3254 18.2623 11.2376 17.9989 11.062C17.6477 10.8864 17.2966 10.7108 17.0332 10.4475C15.9796 9.56951 16.3308 8.34037 16.9454 7.7258C17.4721 7.37462 17.7355 7.02344 18.4379 7.02344C19.4914 7.02344 20.6328 7.02344 21.1596 7.19903H21.2474C21.1596 7.7258 21.0718 8.16478 20.8962 8.69155C20.4572 8.51596 20.0182 8.34037 19.5792 8.34037C19.3159 8.34037 19.0525 8.34037 18.7891 8.42817C18.6135 8.42817 18.5257 8.51596 18.4379 8.60376C18.2623 8.77935 18.2623 9.04273 18.4379 9.21832L18.8769 9.56951C19.2281 9.7451 19.5792 9.92069 19.8426 10.0963C20.2816 10.3597 20.7206 10.7986 20.8084 11.3254C20.984 12.1156 20.7206 12.8179 20.0182 13.3447C19.5792 13.6959 19.4036 13.8715 18.7891 13.8715C17.5599 13.8715 16.5942 13.9593 15.804 13.6959C15.7162 13.8715 15.7162 13.8715 15.6284 13.7837ZM12.5556 14.0471C12.6434 13.4325 12.6434 13.4325 12.7312 13.1691C13.1702 11.2376 13.6091 9.21832 13.9603 7.28682C14.0481 7.11123 14.0481 7.02344 14.2237 7.02344H15.804C15.6284 8.07698 15.4529 8.86714 15.1895 9.83289C14.9261 11.1498 14.6627 12.4668 14.3115 13.7837C14.3115 13.9593 14.2237 13.9593 14.0481 13.9593M4.39062 7.19903C4.39062 7.11123 4.56622 7.02344 4.65401 7.02344H7.63906C8.07803 7.02344 8.42922 7.28682 8.51701 7.7258L9.30717 11.5888C9.30717 11.6766 9.30717 11.6766 9.39497 11.7644C9.39497 11.6766 9.48276 11.6766 9.48276 11.6766L11.3265 7.19903C11.2387 7.11123 11.3265 7.02344 11.4143 7.02344H13.258C13.258 7.11123 13.258 7.11123 13.1702 7.19903L10.4485 13.6081C10.3607 13.7837 10.3607 13.8715 10.2729 13.9593C10.1851 14.0471 10.0095 13.9593 9.83394 13.9593H8.51701C8.42922 13.9593 8.34142 13.9593 8.34142 13.7837L6.93669 8.34037C6.7611 8.16478 6.49772 7.90139 6.14653 7.8136C5.61976 7.55021 4.65401 7.37462 4.47842 7.37462L4.39062 7.19903Z" fill="#142688"/>
</g>
<defs>
<clipPath id="clip0_990_752">
<rect width="33.3623" height="21.0709" fill="white"/>
</clipPath>
</defs>
</svg>
