<svg xmlns="http://www.w3.org/2000/svg" xmlns:xlink="http://www.w3.org/1999/xlink" width="282" zoomAndPan="magnify" viewBox="0 0 211.5 53.25" height="71" preserveAspectRatio="xMidYMid meet" version="1.0"><defs><g/><clipPath id="083b53634b"><path d="M 13 11 L 50.773438 11 L 50.773438 51.449219 L 13 51.449219 Z M 13 11 " clip-rule="nonzero"/></clipPath><clipPath id="a9dd3bf620"><path d="M 1.222656 0.417969 L 39 0.417969 L 39 41 L 1.222656 41 Z M 1.222656 0.417969 " clip-rule="nonzero"/></clipPath></defs><g clip-path="url(#083b53634b)"><path fill="#01949a" d="M 13.003906 30.261719 L 18.300781 32.027344 C 18.300781 32.027344 19.304688 32.582031 17.929688 33.671875 C 17.421875 34.074219 16.898438 34.929688 16.445312 35.855469 C 14.964844 38.859375 14.761719 42.355469 15.996094 45.46875 C 17.226562 48.566406 19.980469 51.636719 26.078125 51.515625 C 28.128906 51.472656 30.148438 50.929688 31.894531 49.847656 C 32.503906 49.464844 33.097656 49.015625 33.554688 48.492188 C 34.503906 47.414062 35.46875 46.351562 36.496094 45.347656 L 47 35.101562 C 47 35.101562 49.621094 32.585938 50.316406 28.089844 C 50.933594 24.082031 49.714844 20.007812 47.089844 16.917969 C 46.117188 15.773438 44.800781 14.332031 43.089844 12.675781 C 43.089844 12.675781 40.816406 10.652344 38.609375 13.109375 L 33.09375 18.660156 C 33.09375 18.660156 31.34375 20.9375 40.023438 21.441406 L 21.128906 32.5 C 21.128906 32.5 23.160156 29.492188 13.003906 30.261719 Z M 13.003906 30.261719 " fill-opacity="1" fill-rule="nonzero"/></g><g clip-path="url(#a9dd3bf620)"><path fill="#adcc40" d="M 38.667969 21.632812 L 33.363281 19.898438 C 33.363281 19.898438 32.359375 19.347656 33.730469 18.25 C 34.234375 17.847656 34.75 16.984375 35.203125 16.058594 C 36.671875 13.046875 36.851562 9.550781 35.601562 6.441406 C 34.355469 3.351562 31.585938 0.296875 25.488281 0.449219 C 23.4375 0.503906 21.421875 1.058594 19.683594 2.148438 C 19.074219 2.53125 18.484375 2.988281 18.027344 3.511719 C 17.082031 4.59375 16.125 5.664062 15.101562 6.667969 L 4.648438 16.972656 C 4.648438 16.972656 2.039062 19.5 1.371094 24 C 0.773438 28.011719 2.011719 32.078125 4.652344 35.15625 C 5.632812 36.292969 6.957031 37.726562 8.671875 39.375 C 8.671875 39.375 10.960938 41.386719 13.15625 38.917969 L 18.640625 33.339844 C 18.640625 33.339844 20.378906 31.054688 11.691406 30.597656 L 30.53125 19.441406 C 30.53125 19.441406 28.515625 22.457031 38.667969 21.632812 Z M 38.667969 21.632812 " fill-opacity="1" fill-rule="nonzero"/></g><path fill="#ffffff" d="M 42.988281 25.453125 L 42.988281 26.550781 C 42.984375 26.828125 42.957031 27.101562 42.902344 27.371094 C 42.851562 27.644531 42.769531 27.90625 42.664062 28.160156 C 42.558594 28.414062 42.425781 28.65625 42.273438 28.886719 C 42.121094 29.117188 41.945312 29.328125 41.75 29.523438 C 41.554688 29.71875 41.34375 29.894531 41.113281 30.046875 C 40.886719 30.199219 40.644531 30.328125 40.386719 30.4375 C 40.132812 30.542969 39.871094 30.621094 39.601562 30.675781 C 39.328125 30.730469 39.054688 30.757812 38.78125 30.757812 L 32.5625 30.757812 C 32.292969 30.757812 32.039062 30.808594 31.789062 30.914062 C 31.542969 31.015625 31.328125 31.160156 31.136719 31.347656 C 30.949219 31.539062 30.804688 31.757812 30.703125 32.003906 C 30.601562 32.25 30.550781 32.507812 30.550781 32.773438 L 30.550781 38.992188 C 30.546875 39.265625 30.519531 39.539062 30.464844 39.8125 C 30.414062 40.082031 30.332031 40.34375 30.226562 40.597656 C 30.121094 40.855469 29.992188 41.097656 29.835938 41.324219 C 29.683594 41.554688 29.507812 41.765625 29.3125 41.960938 C 29.117188 42.15625 28.90625 42.332031 28.675781 42.484375 C 28.449219 42.640625 28.207031 42.769531 27.949219 42.875 C 27.695312 42.980469 27.433594 43.0625 27.164062 43.113281 C 26.890625 43.167969 26.617188 43.195312 26.34375 43.199219 L 25.246094 43.199219 C 24.96875 43.195312 24.695312 43.167969 24.425781 43.113281 C 24.15625 43.0625 23.894531 42.980469 23.636719 42.875 C 23.382812 42.769531 23.140625 42.640625 22.914062 42.484375 C 22.683594 42.332031 22.46875 42.15625 22.277344 41.960938 C 22.082031 41.765625 21.90625 41.554688 21.753906 41.324219 C 21.597656 41.097656 21.46875 40.855469 21.363281 40.597656 C 21.257812 40.34375 21.175781 40.082031 21.121094 39.8125 C 21.066406 39.539062 21.039062 39.265625 21.039062 38.992188 L 21.039062 32.773438 C 21.039062 32.507812 20.988281 32.25 20.886719 32.003906 C 20.785156 31.757812 20.640625 31.539062 20.449219 31.351562 C 20.261719 31.160156 20.042969 31.015625 19.796875 30.914062 C 19.550781 30.8125 19.292969 30.761719 19.027344 30.761719 L 12.808594 30.761719 C 12.535156 30.761719 12.261719 30.734375 11.988281 30.679688 C 11.71875 30.625 11.457031 30.542969 11.203125 30.4375 C 10.945312 30.332031 10.703125 30.203125 10.476562 30.046875 C 10.246094 29.894531 10.035156 29.722656 9.839844 29.527344 C 9.644531 29.332031 9.46875 29.117188 9.316406 28.890625 C 9.164062 28.660156 9.03125 28.417969 8.925781 28.164062 C 8.820312 27.90625 8.742188 27.644531 8.6875 27.375 C 8.632812 27.105469 8.605469 26.832031 8.601562 26.554688 L 8.601562 25.453125 C 8.605469 25.179688 8.632812 24.90625 8.6875 24.636719 C 8.742188 24.363281 8.820312 24.101562 8.925781 23.847656 C 9.03125 23.59375 9.164062 23.351562 9.316406 23.121094 C 9.46875 22.890625 9.644531 22.679688 9.839844 22.484375 C 10.035156 22.289062 10.246094 22.113281 10.476562 21.960938 C 10.703125 21.808594 10.945312 21.679688 11.203125 21.570312 C 11.457031 21.464844 11.71875 21.386719 11.988281 21.332031 C 12.261719 21.277344 12.535156 21.25 12.808594 21.25 L 19.027344 21.25 C 19.292969 21.25 19.550781 21.199219 19.796875 21.09375 C 20.042969 20.992188 20.261719 20.847656 20.449219 20.660156 C 20.640625 20.472656 20.785156 20.253906 20.886719 20.007812 C 20.988281 19.761719 21.039062 19.503906 21.039062 19.238281 L 21.039062 13.019531 C 21.039062 12.742188 21.066406 12.46875 21.121094 12.199219 C 21.175781 11.929688 21.257812 11.664062 21.363281 11.410156 C 21.46875 11.15625 21.597656 10.914062 21.753906 10.683594 C 21.90625 10.453125 22.082031 10.242188 22.277344 10.046875 C 22.46875 9.851562 22.683594 9.679688 22.914062 9.523438 C 23.140625 9.371094 23.382812 9.242188 23.636719 9.136719 C 23.894531 9.03125 24.15625 8.949219 24.425781 8.894531 C 24.695312 8.839844 24.96875 8.8125 25.246094 8.8125 L 26.34375 8.8125 C 26.617188 8.8125 26.890625 8.839844 27.164062 8.894531 C 27.433594 8.949219 27.695312 9.03125 27.949219 9.136719 C 28.207031 9.242188 28.449219 9.371094 28.675781 9.523438 C 28.90625 9.679688 29.117188 9.851562 29.3125 10.046875 C 29.507812 10.242188 29.683594 10.453125 29.835938 10.683594 C 29.992188 10.914062 30.121094 11.15625 30.226562 11.410156 C 30.332031 11.664062 30.414062 11.929688 30.464844 12.199219 C 30.519531 12.46875 30.546875 12.742188 30.550781 13.019531 L 30.550781 19.238281 C 30.550781 19.503906 30.601562 19.761719 30.703125 20.007812 C 30.804688 20.253906 30.949219 20.46875 31.140625 20.660156 C 31.328125 20.847656 31.542969 20.992188 31.792969 21.09375 C 32.039062 21.199219 32.292969 21.25 32.5625 21.25 L 38.78125 21.25 C 39.054688 21.25 39.328125 21.277344 39.601562 21.332031 C 39.871094 21.386719 40.132812 21.464844 40.386719 21.570312 C 40.644531 21.679688 40.886719 21.808594 41.113281 21.960938 C 41.34375 22.113281 41.554688 22.289062 41.75 22.484375 C 41.945312 22.679688 42.121094 22.890625 42.273438 23.121094 C 42.425781 23.351562 42.558594 23.59375 42.664062 23.847656 C 42.769531 24.101562 42.851562 24.363281 42.902344 24.636719 C 42.957031 24.90625 42.984375 25.179688 42.988281 25.453125 Z M 42.988281 25.453125 " fill-opacity="1" fill-rule="nonzero"/><g fill="#191414" fill-opacity="1"><g transform="translate(57.162621, 37.076791)"><g><path d="M 12.828125 -3.859375 C 13.960938 -3.859375 15.023438 -4.09375 16.015625 -4.5625 C 17.015625 -5.039062 17.898438 -5.722656 18.671875 -6.609375 L 21.625 -3.703125 C 20.582031 -2.472656 19.257812 -1.492188 17.65625 -0.765625 C 16.050781 -0.046875 14.398438 0.3125 12.703125 0.3125 C 11.066406 0.3125 9.539062 0.0234375 8.125 -0.546875 C 6.707031 -1.128906 5.476562 -1.914062 4.4375 -2.90625 C 3.40625 -3.90625 2.59375 -5.085938 2 -6.453125 C 1.414062 -7.828125 1.125 -9.300781 1.125 -10.875 C 1.125 -12.445312 1.421875 -13.921875 2.015625 -15.296875 C 2.617188 -16.671875 3.4375 -17.851562 4.46875 -18.84375 C 5.507812 -19.84375 6.738281 -20.628906 8.15625 -21.203125 C 9.570312 -21.785156 11.085938 -22.078125 12.703125 -22.078125 C 14.441406 -22.078125 16.128906 -21.707031 17.765625 -20.96875 C 19.398438 -20.238281 20.726562 -19.253906 21.75 -18.015625 L 18.703125 -15 C 17.929688 -15.957031 17.023438 -16.6875 15.984375 -17.1875 C 14.953125 -17.695312 13.859375 -17.953125 12.703125 -17.953125 C 11.734375 -17.953125 10.816406 -17.769531 9.953125 -17.40625 C 9.097656 -17.039062 8.359375 -16.539062 7.734375 -15.90625 C 7.109375 -15.28125 6.617188 -14.535156 6.265625 -13.671875 C 5.921875 -12.816406 5.75 -11.882812 5.75 -10.875 C 5.75 -9.875 5.925781 -8.941406 6.28125 -8.078125 C 6.644531 -7.222656 7.144531 -6.484375 7.78125 -5.859375 C 8.414062 -5.242188 9.160156 -4.753906 10.015625 -4.390625 C 10.878906 -4.035156 11.816406 -3.859375 12.828125 -3.859375 Z M 12.828125 -3.859375 "/></g></g></g><g fill="#191414" fill-opacity="1"><g transform="translate(79.465521, 37.076791)"><g><path d="M 5.9375 -22.671875 L 5.9375 0 L 1.671875 0 L 1.671875 -21.75 Z M 5.9375 -22.671875 "/></g></g></g><g fill="#191414" fill-opacity="1"><g transform="translate(87.044783, 37.076791)"><g><path d="M 3.796875 -18.109375 C 3.128906 -18.109375 2.554688 -18.34375 2.078125 -18.8125 C 1.597656 -19.289062 1.359375 -19.863281 1.359375 -20.53125 C 1.359375 -21.195312 1.597656 -21.765625 2.078125 -22.234375 C 2.554688 -22.710938 3.128906 -22.953125 3.796875 -22.953125 C 4.453125 -22.953125 5.019531 -22.710938 5.5 -22.234375 C 5.976562 -21.765625 6.21875 -21.195312 6.21875 -20.53125 C 6.21875 -19.863281 5.976562 -19.289062 5.5 -18.8125 C 5.019531 -18.34375 4.453125 -18.109375 3.796875 -18.109375 Z M 5.9375 -16.1875 L 5.9375 0 L 1.671875 0 L 1.671875 -16.1875 Z M 5.9375 -16.1875 "/></g></g></g><g fill="#191414" fill-opacity="1"><g transform="translate(94.624045, 37.076791)"><g><path d="M 1.671875 0 L 1.671875 -16.1875 L 5.9375 -16.1875 L 5.9375 -14.90625 C 6.550781 -15.425781 7.234375 -15.820312 7.984375 -16.09375 C 8.742188 -16.363281 9.570312 -16.5 10.46875 -16.5 C 12.332031 -16.5 13.863281 -15.894531 15.0625 -14.6875 C 16.257812 -13.488281 16.859375 -11.945312 16.859375 -10.0625 L 16.859375 0 L 12.609375 0 L 12.609375 -9.4375 C 12.609375 -10.457031 12.300781 -11.273438 11.6875 -11.890625 C 11.082031 -12.515625 10.269531 -12.828125 9.25 -12.828125 C 8.550781 -12.828125 7.914062 -12.6875 7.34375 -12.40625 C 6.769531 -12.125 6.300781 -11.726562 5.9375 -11.21875 L 5.9375 0 Z M 1.671875 0 "/></g></g></g><g fill="#191414" fill-opacity="1"><g transform="translate(113.044133, 37.076791)"><g><path d="M 3.796875 -18.109375 C 3.128906 -18.109375 2.554688 -18.34375 2.078125 -18.8125 C 1.597656 -19.289062 1.359375 -19.863281 1.359375 -20.53125 C 1.359375 -21.195312 1.597656 -21.765625 2.078125 -22.234375 C 2.554688 -22.710938 3.128906 -22.953125 3.796875 -22.953125 C 4.453125 -22.953125 5.019531 -22.710938 5.5 -22.234375 C 5.976562 -21.765625 6.21875 -21.195312 6.21875 -20.53125 C 6.21875 -19.863281 5.976562 -19.289062 5.5 -18.8125 C 5.019531 -18.34375 4.453125 -18.109375 3.796875 -18.109375 Z M 5.9375 -16.1875 L 5.9375 0 L 1.671875 0 L 1.671875 -16.1875 Z M 5.9375 -16.1875 "/></g></g></g><g fill="#191414" fill-opacity="1"><g transform="translate(120.623395, 37.076791)"><g><path d="M 9.59375 -3.421875 C 10.320312 -3.421875 11 -3.5625 11.625 -3.84375 C 12.257812 -4.132812 12.867188 -4.59375 13.453125 -5.21875 L 16 -2.578125 C 15.164062 -1.671875 14.171875 -0.960938 13.015625 -0.453125 C 11.859375 0.0546875 10.65625 0.3125 9.40625 0.3125 C 8.226562 0.3125 7.113281 0.09375 6.0625 -0.34375 C 5.019531 -0.78125 4.117188 -1.367188 3.359375 -2.109375 C 2.609375 -2.859375 2.015625 -3.742188 1.578125 -4.765625 C 1.148438 -5.796875 0.9375 -6.898438 0.9375 -8.078125 C 0.9375 -9.253906 1.148438 -10.351562 1.578125 -11.375 C 2.015625 -12.40625 2.609375 -13.296875 3.359375 -14.046875 C 4.117188 -14.804688 5.019531 -15.40625 6.0625 -15.84375 C 7.113281 -16.28125 8.226562 -16.5 9.40625 -16.5 C 10.695312 -16.5 11.929688 -16.242188 13.109375 -15.734375 C 14.285156 -15.222656 15.289062 -14.515625 16.125 -13.609375 L 13.515625 -10.84375 C 12.929688 -11.476562 12.304688 -11.960938 11.640625 -12.296875 C 10.984375 -12.628906 10.269531 -12.796875 9.5 -12.796875 C 8.28125 -12.796875 7.25 -12.335938 6.40625 -11.421875 C 5.570312 -10.515625 5.15625 -9.398438 5.15625 -8.078125 C 5.15625 -6.753906 5.582031 -5.644531 6.4375 -4.75 C 7.300781 -3.863281 8.351562 -3.421875 9.59375 -3.421875 Z M 9.59375 -3.421875 "/></g></g></g><g fill="#191414" fill-opacity="1"><g transform="translate(137.148663, 37.076791)"><g/></g></g><g fill="#191414" fill-opacity="1"><g transform="translate(143.392237, 37.076791)"><g><path d="M 1.953125 0 L 1.953125 -21.75 L 10.3125 -21.75 C 11.925781 -21.75 13.4375 -21.46875 14.84375 -20.90625 C 16.25 -20.34375 17.460938 -19.570312 18.484375 -18.59375 C 19.515625 -17.625 20.328125 -16.46875 20.921875 -15.125 C 21.515625 -13.78125 21.8125 -12.34375 21.8125 -10.8125 C 21.8125 -9.300781 21.515625 -7.878906 20.921875 -6.546875 C 20.328125 -5.222656 19.515625 -4.078125 18.484375 -3.109375 C 17.460938 -2.148438 16.25 -1.390625 14.84375 -0.828125 C 13.4375 -0.273438 11.925781 0 10.3125 0 Z M 10.28125 -17.734375 L 6.46875 -17.734375 L 6.46875 -4 L 10.28125 -4 C 11.226562 -4 12.125 -4.175781 12.96875 -4.53125 C 13.8125 -4.882812 14.539062 -5.363281 15.15625 -5.96875 C 15.78125 -6.582031 16.265625 -7.300781 16.609375 -8.125 C 16.960938 -8.957031 17.140625 -9.851562 17.140625 -10.8125 C 17.140625 -11.78125 16.960938 -12.6875 16.609375 -13.53125 C 16.265625 -14.382812 15.78125 -15.125 15.15625 -15.75 C 14.539062 -16.375 13.8125 -16.859375 12.96875 -17.203125 C 12.125 -17.554688 11.226562 -17.734375 10.28125 -17.734375 Z M 10.28125 -17.734375 "/></g></g></g><g fill="#191414" fill-opacity="1"><g transform="translate(166.316396, 37.076791)"><g><path d="M 0.9375 -8.078125 C 0.9375 -9.253906 1.15625 -10.351562 1.59375 -11.375 C 2.039062 -12.40625 2.648438 -13.296875 3.421875 -14.046875 C 4.203125 -14.804688 5.117188 -15.40625 6.171875 -15.84375 C 7.234375 -16.28125 8.363281 -16.5 9.5625 -16.5 C 10.769531 -16.5 11.898438 -16.28125 12.953125 -15.84375 C 14.003906 -15.40625 14.914062 -14.804688 15.6875 -14.046875 C 16.46875 -13.296875 17.082031 -12.40625 17.53125 -11.375 C 17.976562 -10.351562 18.203125 -9.253906 18.203125 -8.078125 C 18.203125 -6.898438 17.976562 -5.796875 17.53125 -4.765625 C 17.082031 -3.742188 16.46875 -2.859375 15.6875 -2.109375 C 14.914062 -1.367188 14.003906 -0.78125 12.953125 -0.34375 C 11.898438 0.09375 10.769531 0.3125 9.5625 0.3125 C 8.363281 0.3125 7.234375 0.09375 6.171875 -0.34375 C 5.117188 -0.78125 4.203125 -1.367188 3.421875 -2.109375 C 2.648438 -2.859375 2.039062 -3.742188 1.59375 -4.765625 C 1.15625 -5.796875 0.9375 -6.898438 0.9375 -8.078125 Z M 9.5625 -3.390625 C 10.8125 -3.390625 11.867188 -3.84375 12.734375 -4.75 C 13.609375 -5.664062 14.046875 -6.773438 14.046875 -8.078125 C 14.046875 -9.398438 13.609375 -10.515625 12.734375 -11.421875 C 11.867188 -12.335938 10.8125 -12.796875 9.5625 -12.796875 C 8.320312 -12.796875 7.265625 -12.335938 6.390625 -11.421875 C 5.523438 -10.515625 5.09375 -9.398438 5.09375 -8.078125 C 5.09375 -6.773438 5.523438 -5.664062 6.390625 -4.75 C 7.265625 -3.84375 8.320312 -3.390625 9.5625 -3.390625 Z M 9.5625 -3.390625 "/></g></g></g><g fill="#191414" fill-opacity="1"><g transform="translate(185.575174, 37.076791)"><g><path d="M 9.59375 -3.421875 C 10.320312 -3.421875 11 -3.5625 11.625 -3.84375 C 12.257812 -4.132812 12.867188 -4.59375 13.453125 -5.21875 L 16 -2.578125 C 15.164062 -1.671875 14.171875 -0.960938 13.015625 -0.453125 C 11.859375 0.0546875 10.65625 0.3125 9.40625 0.3125 C 8.226562 0.3125 7.113281 0.09375 6.0625 -0.34375 C 5.019531 -0.78125 4.117188 -1.367188 3.359375 -2.109375 C 2.609375 -2.859375 2.015625 -3.742188 1.578125 -4.765625 C 1.148438 -5.796875 0.9375 -6.898438 0.9375 -8.078125 C 0.9375 -9.253906 1.148438 -10.351562 1.578125 -11.375 C 2.015625 -12.40625 2.609375 -13.296875 3.359375 -14.046875 C 4.117188 -14.804688 5.019531 -15.40625 6.0625 -15.84375 C 7.113281 -16.28125 8.226562 -16.5 9.40625 -16.5 C 10.695312 -16.5 11.929688 -16.242188 13.109375 -15.734375 C 14.285156 -15.222656 15.289062 -14.515625 16.125 -13.609375 L 13.515625 -10.84375 C 12.929688 -11.476562 12.304688 -11.960938 11.640625 -12.296875 C 10.984375 -12.628906 10.269531 -12.796875 9.5 -12.796875 C 8.28125 -12.796875 7.25 -12.335938 6.40625 -11.421875 C 5.570312 -10.515625 5.15625 -9.398438 5.15625 -8.078125 C 5.15625 -6.753906 5.582031 -5.644531 6.4375 -4.75 C 7.300781 -3.863281 8.351562 -3.421875 9.59375 -3.421875 Z M 9.59375 -3.421875 "/></g></g></g></svg>